<svg width="200" height="200" viewBox="0 0 200 200" fill="none" xmlns="http://www.w3.org/2000/svg">
<g clip-path="url(#clip0_124_2)">
<path d="M36.25 168.75C34.15 168.75 32.5 168.1 31.3 166.8C30.1 165.5 29.5 163.9 29.5 162C29.5 161.2 29.75 160.2 30.25 159L68.5 68.7C69.2 67.1 70.25 65.7 71.65 64.5C73.15 63.2 75 62.55 77.2 62.55H78.7C81 62.55 82.85 63.2 84.25 64.5C85.65 65.7 86.7 67.1 87.4 68.7L125.65 159C126.15 160.2 126.4 161.2 126.4 162C126.4 163.9 125.8 165.5 124.6 166.8C123.4 168.1 121.75 168.75 119.65 168.75C116.55 168.75 114.4 167.35 113.2 164.55L103.45 141.15H52.45L42.7 164.55C41.5 167.35 39.35 168.75 36.25 168.75ZM57.7 128.7H98.2L77.95 79.95L57.7 128.7ZM155.214 168.75C153.314 168.75 151.714 168.1 150.414 166.8C149.114 165.5 148.464 163.9 148.464 162V69.45C148.464 67.55 149.114 65.95 150.414 64.65C151.714 63.25 153.314 62.55 155.214 62.55C157.114 62.55 158.714 63.25 160.014 64.65C161.414 65.95 162.114 67.55 162.114 69.45V162C162.114 163.9 161.414 165.5 160.014 166.8C158.714 168.1 157.114 168.75 155.214 168.75Z" fill="black"/>
<path d="M148.632 16.7817C149.569 14.4061 152.931 14.4061 153.868 16.7817L156.771 24.1433C157.057 24.8686 157.631 25.4427 158.357 25.7287L165.718 28.6321C168.094 29.569 168.094 32.931 165.718 33.8679L158.357 36.7712C157.631 37.0572 157.057 37.6315 156.771 38.3568L153.868 45.7183C152.931 48.094 149.569 48.094 148.632 45.7183L145.729 38.3568C145.443 37.6315 144.869 37.0572 144.143 36.7712L136.782 33.8679C134.406 32.931 134.406 29.569 136.782 28.6321L144.143 25.7287C144.869 25.4427 145.443 24.8686 145.729 24.1433L148.632 16.7817Z" fill="black"/>
<path d="M172.311 43.4789C172.826 42.1737 174.674 42.1737 175.189 43.4789L177.44 49.1882C177.597 49.5869 177.913 49.9024 178.312 50.0597L184.021 52.3112C185.326 52.8262 185.326 54.6737 184.021 55.1887L178.312 57.4402C177.913 57.5974 177.597 57.9129 177.44 58.3117L175.189 64.0209C174.674 65.3262 172.826 65.3262 172.311 64.0209L170.06 58.3117C169.902 57.9129 169.587 57.5974 169.188 57.4402L163.479 55.1887C162.174 54.6737 162.174 52.8262 163.479 52.3112L169.188 50.0597C169.587 49.9024 169.902 49.5869 170.06 49.1882L172.311 43.4789Z" fill="black"/>
</g>
<defs>
<clipPath id="clip0_124_2">
<rect width="200" height="200" fill="white"/>
</clipPath>
</defs>
</svg>
