<svg width="200" height="200" viewBox="0 0 200 200" fill="none" xmlns="http://www.w3.org/2000/svg">
<path d="M36.25 169.75C34.15 169.75 32.5 169.1 31.3 167.8C30.1 166.5 29.5 164.9 29.5 163C29.5 162.2 29.75 161.2 30.25 160L68.5 69.7C69.2 68.1 70.25 66.7 71.65 65.5C73.15 64.2 75 63.55 77.2 63.55H78.7C81 63.55 82.85 64.2 84.25 65.5C85.65 66.7 86.7 68.1 87.4 69.7L125.65 160C126.15 161.2 126.4 162.2 126.4 163C126.4 164.9 125.8 166.5 124.6 167.8C123.4 169.1 121.75 169.75 119.65 169.75C116.55 169.75 114.4 168.35 113.2 165.55L103.45 142.15H52.45L42.7 165.55C41.5 168.35 39.35 169.75 36.25 169.75ZM57.7 129.7H98.2L77.95 80.95L57.7 129.7ZM155.214 169.75C153.314 169.75 151.714 169.1 150.414 167.8C149.114 166.5 148.464 164.9 148.464 163V70.45C148.464 68.55 149.114 66.95 150.414 65.65C151.714 64.25 153.314 63.55 155.214 63.55C157.114 63.55 158.714 64.25 160.014 65.65C161.414 66.95 162.114 68.55 162.114 70.45V163C162.114 164.9 161.414 166.5 160.014 167.8C158.714 169.1 157.114 169.75 155.214 169.75Z" fill="black"/>
<path d="M147.632 18.7817C148.569 16.4061 151.931 16.4061 152.868 18.7817L155.771 26.1433C156.057 26.8686 156.632 27.4427 157.357 27.7287L164.718 30.6321C167.094 31.569 167.094 34.931 164.718 35.8679L157.357 38.7712C156.632 39.0572 156.057 39.6315 155.771 40.3568L152.868 47.7183C151.931 50.094 148.569 50.094 147.632 47.7183L144.729 40.3568C144.443 39.6315 143.869 39.0572 143.143 38.7712L135.782 35.8679C133.406 34.931 133.406 31.569 135.782 30.6321L143.143 27.7287C143.869 27.4427 144.443 26.8686 144.729 26.1433L147.632 18.7817Z" fill="black"/>
<path d="M171.311 45.4789C171.826 44.1737 173.674 44.1737 174.189 45.4789L176.44 51.1882C176.597 51.5869 176.913 51.9024 177.312 52.0597L183.021 54.3112C184.326 54.8262 184.326 56.6737 183.021 57.1887L177.312 59.4402C176.913 59.5974 176.597 59.9129 176.44 60.3117L174.189 66.0209C173.674 67.3262 171.826 67.3262 171.311 66.0209L169.06 60.3117C168.902 59.9129 168.587 59.5974 168.188 59.4402L162.479 57.1887C161.174 56.6737 161.174 54.8262 162.479 54.3112L168.188 52.0597C168.587 51.9024 168.902 51.5869 169.06 51.1882L171.311 45.4789Z" fill="black"/>
</svg>
