<svg width="40" height="40" viewBox="0 0 40 40" fill="none" xmlns="http://www.w3.org/2000/svg">
<path d="M25.4899 6.72L29.9951 7.91563C30.1126 7.93961 30.2081 8.03563 30.2351 8.15383L31.4229 12.6591C31.4549 12.7913 31.5712 12.8843 31.7065 12.8843C31.8432 12.8843 31.9582 12.7913 31.9889 12.6591L33.1785 8.15383C33.2037 8.0357 33.2997 7.93961 33.4172 7.91563L37.9231 6.72C38.0548 6.69531 38.1484 6.57781 38.1484 6.44242C38.1484 6.30578 38.0548 6.1907 37.9231 6.1643L33.4172 4.96922C33.2997 4.94406 33.2037 4.84922 33.1785 4.73109L31.9889 0.225859C31.9582 0.0947656 31.8431 0 31.7065 0C31.5712 0 31.4548 0.0947656 31.4229 0.225859L30.2351 4.73109C30.2081 4.84922 30.1127 4.94406 29.9951 4.96922L25.4899 6.1643C25.3569 6.19078 25.2646 6.30586 25.2646 6.44242C25.2646 6.57781 25.357 6.69539 25.4899 6.72Z" fill="#FFC20E"/>
<path d="M30.0978 25.5102L28.0528 24.968C27.9993 24.9557 27.9556 24.9138 27.9439 24.8598L27.4048 22.8148C27.3907 22.7552 27.3383 22.7127 27.2762 22.7127C27.2153 22.7127 27.1624 22.7552 27.1476 22.8148L26.6086 24.8598C26.5962 24.9139 26.5532 24.9557 26.4996 24.968L24.4554 25.5102C24.395 25.5219 24.3525 25.5748 24.3525 25.6363C24.3525 25.6979 24.395 25.7509 24.4554 25.7631L26.4996 26.3047C26.5532 26.3157 26.5962 26.3601 26.6086 26.4142L27.1476 28.4579C27.1624 28.5176 27.2153 28.5601 27.2762 28.5601C27.3384 28.5601 27.3907 28.5176 27.4048 28.4579L27.9439 26.4142C27.9556 26.3601 27.9993 26.3157 28.0528 26.3047L30.0978 25.7631C30.1568 25.7509 30.2 25.6979 30.2 25.6363C30.1999 25.5748 30.1568 25.5219 30.0978 25.5102Z" fill="#FFC20E"/>
<path d="M2.95631 10.9434L6.17537 11.7962C6.26021 11.8141 6.3274 11.8825 6.34764 11.9673L7.19561 15.1864C7.21896 15.2818 7.30209 15.3477 7.39873 15.3477C7.49592 15.3477 7.57842 15.2818 7.60123 15.1864L8.44982 11.9673C8.46771 11.8825 8.53725 11.8141 8.62154 11.7962L11.8412 10.9434C11.9354 10.9237 12.0024 10.8387 12.0024 10.7427C12.0024 10.6467 11.9354 10.5643 11.8412 10.5446L8.62154 9.69039C8.53725 9.67195 8.46771 9.60555 8.44982 9.52055L7.60123 6.29969C7.57842 6.20609 7.496 6.13969 7.39873 6.13969C7.30217 6.13969 7.21904 6.20609 7.19561 6.29969L6.34764 9.52062C6.32732 9.60555 6.26021 9.67195 6.17537 9.69047L2.95631 10.5447C2.86029 10.5644 2.79443 10.6468 2.79443 10.7428C2.79443 10.8387 2.86029 10.9237 2.95631 10.9434Z" fill="#FFC20E"/>
<path d="M30.9839 21.6326C30.3685 20.9126 29.4892 20.2738 28.4049 19.7384H28.4061C26.2436 18.6677 23.2781 18.0123 20.0012 18.0105L19.992 18.011V18.0105C17.8399 18.011 15.8203 18.2935 14.0744 18.7908C12.3285 19.288 10.8591 19.997 9.80057 20.8585L9.80237 20.8573C9.09534 21.432 8.57534 22.0733 8.28674 22.7705C8.12174 23.1663 8.03502 23.5834 8.03565 24.0062C8.03565 24.3539 8.31752 24.6363 8.6658 24.6363C9.01416 24.6363 9.29596 24.3539 9.29596 24.0062C9.29659 23.752 9.34463 23.5102 9.45104 23.2517C9.63502 22.8037 10.011 22.3102 10.5963 21.8363L10.5981 21.8351C11.4695 21.1213 12.7999 20.4616 14.4196 20.0031C16.0393 19.5409 17.9507 19.2708 19.992 19.2714H20.0252C23.1212 19.272 25.9181 19.9077 27.8455 20.8677L27.8474 20.8684C28.8147 21.3447 29.5612 21.9046 30.0258 22.4511C30.2597 22.725 30.4258 22.9939 30.5323 23.2517C30.6653 23.5736 31.0332 23.7262 31.3551 23.5933C31.677 23.4604 31.8296 23.0923 31.6967 22.7705C31.5322 22.3729 31.2923 21.992 30.9839 21.6326Z" fill="#FFC20E"/>
<path d="M37.9618 21.2473C37.696 20.6061 37.3323 20.0098 36.8935 19.4591C36.4547 18.9089 35.9415 18.403 35.3704 17.9378L35.3354 17.9095L35.3692 17.9378C33.6535 16.5434 31.3956 15.4775 28.7803 14.7292H28.7796C26.1618 13.9852 23.1754 13.5698 20 13.5698C17.5803 13.5698 15.2713 13.8111 13.1507 14.2548C11.0301 14.6985 9.09785 15.3446 7.43137 16.168L7.43012 16.1686C5.76551 16.9945 4.35012 18 3.29965 19.2264L3.31871 19.203L3.29902 19.2264C2.77473 19.8406 2.34152 20.5145 2.03809 21.2473C1.7341 21.9809 1.56488 22.7716 1.56543 23.5858V29.9821C1.56488 30.797 1.7341 31.5883 2.03809 32.3218C2.30395 32.963 2.6677 33.5587 3.10645 34.1095C3.54582 34.6602 4.0584 35.1655 4.62942 35.6307L4.63067 35.6313C6.34637 37.0245 8.60356 38.0928 11.2189 38.8398L11.233 38.843C13.848 39.5846 16.8295 39.9994 20 40H20.0006C22.4196 39.9994 24.7286 39.7581 26.8492 39.3145C28.9698 38.8707 30.9021 38.224 32.5686 37.4012L32.5697 37.4C34.2343 36.5741 35.6491 35.568 36.7002 34.3427L36.7008 34.3416C37.2251 33.7286 37.6577 33.0555 37.9611 32.3219L37.9421 32.3668L37.9618 32.3219C38.2651 31.5883 38.4344 30.797 38.4344 29.9822V23.5859C38.4344 22.7716 38.2652 21.9809 37.9618 21.2473ZM5.69043 33.3132C5.4966 33.1305 5.31567 32.9446 5.15449 32.7569C4.77231 32.3089 4.48551 31.8505 4.2941 31.3889C4.1027 30.9262 4.00676 30.4603 4.00676 29.9822V27.0825C4.38027 27.5434 4.82152 27.9785 5.32059 28.3859C5.44067 28.4825 5.56371 28.578 5.69043 28.6727V33.3132ZM9.2252 35.5416C8.98215 35.4357 8.74277 35.3273 8.51317 35.213C7.9784 34.9484 7.48606 34.6659 7.03691 34.3712V29.5527C7.70707 29.9373 8.43934 30.2899 9.2252 30.6075V35.5416ZM13.6024 36.9145C12.4935 36.6799 11.4529 36.3864 10.4935 36.0437H10.5729V31.0991C10.8811 31.2013 11.1975 31.2979 11.5199 31.3902C12.187 31.5798 12.8836 31.7459 13.6024 31.8905V36.9145ZM19.3261 37.5513C17.8012 37.5205 16.3354 37.3815 14.9495 37.1575V32.1262C16.3433 32.3415 17.8092 32.4677 19.3261 32.4973V37.5513ZM25.219 37.1273C23.7839 37.3667 22.2615 37.5169 20.6738 37.5477V32.5002C22.2516 32.4695 23.776 32.3323 25.219 32.1033V37.1273ZM29.5963 36.0129C29.1212 36.1852 28.6264 36.3452 28.1113 36.4916C27.6141 36.6332 27.096 36.7593 26.5655 36.875V31.8572C27.632 31.6369 28.6461 31.3624 29.5963 31.0418V36.0129ZM33.1316 34.2566C32.4941 34.6935 31.7605 35.0997 30.9427 35.4688V30.5372C31.3365 30.3741 31.7187 30.203 32.0836 30.0227C32.4486 29.8412 32.7975 29.651 33.1316 29.4541V34.2566ZM35.9932 29.9821C35.9932 30.4602 35.8972 30.9262 35.7052 31.3888C35.459 31.987 35.0461 32.5821 34.4781 33.1526V28.6024H34.3981C34.9568 28.1759 35.4522 27.7212 35.8689 27.2345C35.9113 27.1846 35.9519 27.1341 35.9931 27.0837V29.9821H35.9932ZM35.7052 24.9914C35.3729 25.7988 34.739 26.6 33.8283 27.3416C32.4652 28.4541 30.488 29.4191 28.1114 30.0941C25.7354 30.7711 22.9612 31.1619 20 31.1619C15.4886 31.1637 11.408 30.2511 8.51324 28.8154C7.0659 28.0998 5.91879 27.2555 5.15449 26.3588C4.77231 25.9114 4.48551 25.453 4.2941 24.9915C4.1027 24.5287 4.00676 24.0634 4.00676 23.5859C4.00676 23.1084 4.1027 22.6432 4.2941 22.1804C4.6277 21.3724 5.26027 20.5712 6.17168 19.8309C7.53543 18.7176 9.51199 17.7521 11.8886 17.077C14.2647 16.4008 17.0394 16.0105 20 16.0105C24.5114 16.008 28.5914 16.9213 31.4862 18.3564C32.9342 19.0715 34.0818 19.917 34.845 20.8123C35.2277 21.2598 35.5145 21.7182 35.7053 22.1803C35.8973 22.6431 35.9932 23.1083 35.9932 23.5859C35.9932 24.0634 35.8972 24.5286 35.7052 24.9914Z" fill="#FFC20E"/>
</svg>
