<svg width="120" height="120" viewBox="0 0 120 120" fill="none" xmlns="http://www.w3.org/2000/svg">
<path fill-rule="evenodd" clip-rule="evenodd" d="M25 95C25 92.2385 27.2386 90 30 90H90C92.7615 90 95 92.2385 95 95C95 97.7615 92.7615 100 90 100H30C27.2386 100 25 97.7615 25 95Z" fill="black"/>
<path fill-rule="evenodd" clip-rule="evenodd" d="M49.3933 23.5355C55.251 17.6776 64.7485 17.6776 70.6065 23.5355L83.439 36.3679C84.961 37.8897 87.2855 38.2669 89.2105 37.3045L92.764 35.5278C100.438 31.6906 108.921 39.0476 106.208 47.1877L97.0225 74.7434C94.981 80.8684 89.249 84.9999 82.7925 84.9999H37.2075C30.7511 84.9999 25.019 80.8684 22.9773 74.7434L13.7921 47.1877C11.0787 39.0477 19.5615 31.6906 27.236 35.5278L30.7893 37.3045C32.7143 38.2669 35.0391 37.8897 36.5609 36.3679L49.3933 23.5355Z" fill="black"/>
</svg>
