<svg width="40" height="40" viewBox="0 0 40 40" fill="none" xmlns="http://www.w3.org/2000/svg">
<g clip-path="url(#clip0_13_11)">
<path d="M29.7306 14.0655C27.0506 10.7258 24.2468 7.22114 24.3293 0.830293C24.3293 0.500443 24.1644 0.253056 23.8758 0.0881305C23.5871 -0.0355633 23.2573 -0.0355633 23.0099 0.129362C18.5157 3.3454 14.5163 10.3959 15.6707 18.9721C14.1039 18.065 13.1556 16.5394 12.0836 14.9314C11.7538 14.3954 11.4239 13.8594 11.0528 13.3646C10.8879 13.1584 10.6405 12.9935 10.3519 13.0347C10.0633 13.0347 9.81589 13.1997 9.6922 13.4058C7.54817 16.7456 5.36292 20.7862 5.36292 25.1567C5.36292 33.7741 11.4239 40 19.7939 40C28.2463 40 34.6371 33.6092 34.6371 25.1567C34.6371 20.1678 32.1632 17.0754 29.7306 14.0655ZM19.7939 38.3507C12.3722 38.3507 7.01217 32.7845 7.01217 25.1567C7.01217 21.6521 8.62018 18.2711 10.4344 15.3437C10.5168 15.5086 10.6405 15.6323 10.723 15.7972C11.8362 17.529 12.9495 19.2607 14.8461 20.3739C15.3821 20.7038 16.0418 20.7038 16.5778 20.3739C17.1138 20.0441 17.4024 19.4256 17.32 18.7659C16.3304 11.7153 19.1754 5.77805 22.7213 2.56201C23.1336 8.49931 25.9373 12.004 28.4524 15.1375C30.8851 18.1474 32.9879 20.745 32.9879 25.1567C32.9879 32.6608 27.298 38.3507 19.7939 38.3507Z" fill="#F97316"/>
<path d="M30.9263 22.6829C30.4728 22.6829 30.1017 23.0539 30.1017 23.5075C30.1017 26.2288 29.4008 28.7026 27.9577 30.8879C27.7103 31.259 27.834 31.795 28.2051 32.0424C28.3288 32.1248 28.4937 32.1661 28.6586 32.1661C28.9472 32.1661 29.1946 32.0424 29.3595 31.795C30.9263 29.3211 31.751 26.5586 31.751 23.5075C31.751 23.0539 31.3799 22.6829 30.9263 22.6829Z" fill="#F97316"/>
<path d="M27.5454 32.7845C27.2155 32.4959 26.6795 32.5371 26.3909 32.867C26.1847 33.1144 25.8961 33.3618 25.6075 33.6092C25.2777 33.8978 25.2364 34.4338 25.525 34.7636C25.69 34.9698 25.9374 35.0522 26.1435 35.0522C26.3497 35.0522 26.5146 34.9698 26.6795 34.8461C27.0094 34.5575 27.3392 34.2689 27.6278 33.939C27.9165 33.6092 27.8752 33.0731 27.5454 32.7845Z" fill="#F97316"/>
</g>
<defs>
<clipPath id="clip0_13_11">
<rect width="40" height="40" fill="white"/>
</clipPath>
</defs>
</svg>
