<svg width="148" height="127" viewBox="0 0 148 127" fill="none" xmlns="http://www.w3.org/2000/svg">
<g clip-path="url(#clip0_136_3)">
<path d="M22.9284 77.6188C22.9284 62.1705 23.5528 53.2209 24.7668 51.0282C27.5997 45.9482 33.6122 45.5017 36.0865 46.0871C39.2431 46.8313 41.9834 44.3309 43.0125 43.2197C43.9953 42.168 45.614 40.7392 47.7993 39.9355C50.505 38.9434 53.0025 38.7548 55.234 39.3799C57.8009 40.1042 60.6915 39.4097 62.4375 37.6535C64.75 35.3219 68.9703 32.9307 75.9772 34.7365C76.2355 34.8046 76.5089 34.8196 76.7752 34.7804C77.0416 34.7412 77.2935 34.6489 77.5106 34.5108C77.7278 34.3727 77.9041 34.1928 78.0253 33.9856C78.1466 33.7783 78.2094 33.5496 78.2087 33.3177L78.1625 13.8807C78.1625 11.2911 80.7178 5.60586 88.3259 5.60586C94.7893 5.60586 96.2462 11.4796 96.2462 13.5334L96.385 70.1576C96.385 70.9712 97.1481 71.626 98.0962 71.6459C99.0443 71.6558 99.8306 71.0208 99.8537 70.2072C99.8653 70.1774 100.143 68.4312 104.629 61.7438C109.115 55.0862 113.602 51.0977 120.932 53.3301C124.667 54.4711 125.072 58.0926 125.072 59.5908C125.072 61.4958 124.505 63.0833 123.985 63.758C119.845 69.086 117.406 74.2454 114.816 79.7123C112.087 85.4869 109.266 91.4698 104.12 98.2563C103.161 99.5164 101.981 100.638 100.605 101.56C94.1881 105.896 89.8868 111.532 88.1756 117.852L87.8287 119.132C87.5281 120.243 86.3834 121.037 85.0422 121.047L39.1506 121.384C37.844 121.394 36.6878 120.66 36.3293 119.578C36.3062 119.489 36.26 119.41 36.2137 119.33C36.0865 119.092 22.9631 95.8354 22.9284 79.5139V77.6188Z" fill="url(#paint0_linear_136_3)"/>
<path d="M123.337 59.5908C123.337 61.337 122.805 62.5971 122.539 62.9345C118.296 68.3915 115.822 73.6203 113.208 79.1567C110.503 84.8717 107.716 90.7752 102.663 97.4527C101.808 98.5837 100.756 99.5759 99.53 100.399C92.8006 104.954 88.2912 110.867 86.4759 117.515L86.129 118.795C86.0134 119.241 85.5509 119.559 85.019 119.559L39.1159 119.906C38.5956 119.906 38.1331 119.618 37.9943 119.182C37.9365 119.013 37.8672 118.844 37.7747 118.685C37.6475 118.457 24.6975 95.5179 24.6628 79.5238V77.6287C24.6628 57.6461 25.715 52.7844 26.3393 51.6632C28.675 47.4762 33.6931 47.0595 35.6356 47.5159C38.5609 48.2005 41.7406 46.9702 44.3768 44.1325C45.2325 43.2098 46.6431 41.9695 48.4815 41.2948C50.794 40.4515 52.8753 40.2729 54.6906 40.7888C56.2819 41.2427 57.995 41.2783 59.6101 40.8912C61.2252 40.504 62.6687 39.7118 63.7556 38.6159C66.6347 35.7187 70.5775 34.8952 75.48 36.1553C76.5322 36.4232 77.6653 36.2545 78.5556 35.689C78.9893 35.4111 79.3416 35.0503 79.5844 34.6353C79.8273 34.2202 79.954 33.7623 79.9547 33.2978V33.2879L79.9084 13.8609C79.9084 12.5115 81.4115 7.0743 88.3375 7.0743C94.2575 7.0743 94.5234 13.4541 94.5234 13.5235L94.6622 70.1278V70.1576C94.6622 70.237 94.6622 70.3163 94.6737 70.3957C94.8125 71.9931 96.4081 73.1937 98.2697 73.1341C100.016 73.0746 101.426 71.8939 101.588 70.4255C101.669 70.1278 102.305 68.193 106.155 62.478C111.775 54.1238 115.764 53.3202 120.377 54.7291C122.944 55.5228 123.337 58.1223 123.337 59.5908ZM126.806 59.5908C126.806 56.5249 125.488 53.1316 121.51 51.9212C114.249 49.7086 108.838 52.4966 103.126 60.9898C98.3622 68.074 98.1193 69.9095 98.1193 70.1477V70.1774V70.1576L97.9806 13.5334C97.9806 10.408 95.6681 4.11758 88.3259 4.11758C79.4575 4.11758 76.4281 10.7355 76.4281 13.8807L76.4743 33.3177C68.4268 31.244 63.6053 34.1908 61.1193 36.6911C59.8128 38.0008 57.6853 38.4969 55.7775 37.9611C53.7656 37.3955 50.8519 37.1971 47.1287 38.5663C44.7006 39.4593 42.8853 40.9773 41.6712 42.287C40.4572 43.5967 38.4337 45.0949 36.5606 44.6484C33.115 43.8348 26.3278 44.8072 23.2175 50.3833C21.4715 53.5285 21.2056 66.5361 21.2056 77.6387V79.5437C21.2518 96.4109 34.6644 120.005 34.6644 120.005C34.9404 120.843 35.5305 121.581 36.3434 122.102C37.1564 122.624 38.147 122.902 39.1622 122.892L85.0537 122.545C86.0882 122.534 87.0886 122.226 87.8954 121.671C88.7023 121.115 89.269 120.344 89.5053 119.479L89.8522 118.199C91.5287 112.008 95.8531 106.68 101.669 102.741C103.045 101.808 104.398 100.608 105.566 99.0798C115.671 85.725 117.036 75.3864 125.418 64.5914C126.205 63.5794 126.806 61.6645 126.806 59.5908Z" fill="#BA8F63"/>
<path d="M79.3651 53.2904L79.897 32.2858L77.0642 33.9725C76.382 33.9725 75.8617 34.7365 75.9426 35.6096L76.8329 53.3102C76.9948 55.0763 79.261 55.0565 79.3651 53.2904Z" fill="#BA8F63"/>
<path d="M98.05 78.1149L101.299 71.1994L102.386 68.7487L98.5472 69.6119L94.8125 70.5445L94.9166 77.9661C94.9051 79.3353 97.4025 79.1964 98.05 78.1149Z" fill="#BA8F63"/>
<path d="M59.5815 53.6873L60.4718 40.7194C60.5296 40.134 57.5581 40.4713 57.5581 40.4713C56.8759 40.4713 56.3556 40.9972 56.4365 41.5925L57.3268 53.727C57.4771 54.9275 59.4659 54.8977 59.5815 53.6873Z" fill="#BA8F63"/>
<path d="M40.3532 53.4591L41.2436 46.4741C41.3014 46.1566 38.3298 46.3451 38.3298 46.3451C37.6476 46.3451 37.1273 46.6229 37.2082 46.9503L38.0986 53.4789C38.2604 54.1238 40.2492 54.104 40.3532 53.4591Z" fill="#BA8F63"/>
</g>
<defs>
<linearGradient id="paint0_linear_136_3" x1="71.6875" y1="7.97719" x2="71.6875" y2="123.686" gradientUnits="userSpaceOnUse">
<stop offset="0.128" stop-color="#CCA47A"/>
<stop offset="0.642" stop-color="#E0BB95"/>
</linearGradient>
<clipPath id="clip0_136_3">
<rect width="127" height="148" fill="white" transform="matrix(0 1 -1 0 148 0)"/>
</clipPath>
</defs>
</svg>
