<svg width="95" height="60" viewBox="0 0 95 60" fill="none" xmlns="http://www.w3.org/2000/svg">
<path d="M89.5 19.9538H67.6707M67.6707 19.9538H65.2724C60.4756 15.0407 53.2805 10.1183 48.4837 15.0363M67.6707 19.9538V39.6237M48.4837 15.0363L41.2876 22.4166C41.0972 22.6118 41.0021 22.7094 40.9255 22.7958C39.262 24.672 39.2627 27.5372 40.9271 29.4128C41.0037 29.4991 41.0991 29.5967 41.2894 29.7917C41.4797 29.9867 41.5749 30.0843 41.6591 30.1627C43.489 31.8674 46.283 31.8671 48.1122 30.1617C48.1964 30.0833 48.2916 29.9857 48.4818 29.7907L50.8812 27.331M48.4837 15.0363C43.687 10.1183 36.4919 15.0409 31.6951 19.954H29.2967M67.6707 39.6237V47H89.5M67.6707 39.6237H60.8872M29.2967 19.954L7 19.9538M29.2967 19.954V39.6237M29.2967 39.6237H34.0935L35.0096 41.5022C36.2416 44.0281 39.6358 44.3418 41.2886 42.0825C42.5963 43.4232 43.2502 44.0935 43.9556 44.452C45.2975 45.1336 46.8732 45.1336 48.2151 44.452C48.9205 44.0935 49.5745 43.4232 50.8821 42.0825L52.0813 43.3119C52.2722 43.5076 52.3679 43.6057 52.4523 43.6846C54.2821 45.3895 57.0757 45.3895 58.9054 43.6846C58.9898 43.6057 59.0855 43.5076 59.2764 43.3119C59.4673 43.1162 59.563 43.0183 59.6398 42.9315C61.3028 41.056 61.3028 38.1918 59.6398 36.3162C59.563 36.2294 59.4673 36.1316 59.2764 35.9356L55.6789 32.2475M29.2967 39.6237V47H7" stroke="url(#paint0_linear_162_20)" stroke-width="5" stroke-linecap="round" stroke-linejoin="round"/>
<defs>
<linearGradient id="paint0_linear_162_20" x1="48.25" y1="13" x2="48.25" y2="47" gradientUnits="userSpaceOnUse">
<stop stop-color="#F9C835"/>
<stop offset="1" stop-color="#CDB054"/>
</linearGradient>
</defs>
</svg>
