<svg width="61" height="61" viewBox="0 0 61 61" fill="none" xmlns="http://www.w3.org/2000/svg">
<g clip-path="url(#clip0_114_2)">
<path d="M56.9461 0.853119H46.9253C44.7496 0.853119 42.9796 2.62324 42.9796 4.79882V14.8196C42.9796 16.9953 44.7497 18.7653 46.9253 18.7653H56.9461C59.1218 18.7653 60.8918 16.9952 60.8918 14.8196V4.79882C60.8918 2.62324 59.1217 0.853119 56.9461 0.853119ZM59.013 14.8198C59.013 15.9594 58.0858 16.8866 56.9461 16.8866H46.9253C45.7857 16.8866 44.8585 15.9594 44.8585 14.8198V4.79882C44.8585 3.65917 45.7857 2.73199 46.9253 2.73199H56.9461C58.0858 2.73199 59.013 3.65917 59.013 4.79882V14.8198Z" fill="black"/>
<path d="M57.6104 6.13874C57.2436 5.77183 56.6486 5.77183 56.2818 6.13874L50.9335 11.4871L48.5915 9.14507C48.2246 8.77816 47.6298 8.77816 47.263 9.14507C46.8961 9.51198 46.8961 10.1068 47.263 10.4736L50.2692 13.4798C50.4526 13.6632 50.6931 13.755 50.9334 13.755C51.1738 13.755 51.4142 13.6634 51.5976 13.4798L57.6102 7.4673C57.9773 7.10038 57.9773 6.50554 57.6104 6.13874Z" fill="black"/>
<path d="M56.9461 21.8969H46.9253C44.7496 21.8969 42.9796 23.6671 42.9796 25.8426V35.8635C42.9796 38.0392 44.7497 39.8092 46.9253 39.8092H56.9461C59.1218 39.8092 60.8918 38.0391 60.8918 35.8635V25.8426C60.8918 23.6671 59.1217 21.8969 56.9461 21.8969ZM59.013 35.8636C59.013 37.0032 58.0858 37.9304 56.9461 37.9304H46.9253C45.7857 37.9304 44.8585 37.0032 44.8585 35.8636V25.8428C44.8585 24.7031 45.7857 23.7759 46.9253 23.7759H56.9461C58.0858 23.7759 59.013 24.7031 59.013 25.8428V35.8636Z" fill="black"/>
<path d="M56.9461 42.9408H46.9253C44.7496 42.9408 42.9796 44.7109 42.9796 46.8865V56.9073C42.9796 59.083 44.7497 60.853 46.9253 60.853H56.9461C59.1218 60.853 60.8918 59.0829 60.8918 56.9073V46.8865C60.8918 44.7109 59.1217 42.9408 56.9461 42.9408ZM59.013 56.9074C59.013 58.0471 58.0858 58.9742 56.9461 58.9742H46.9253C45.7857 58.9742 44.8585 58.0471 44.8585 56.9074V46.8866C44.8585 45.7469 45.7857 44.8197 46.9253 44.8197H56.9461C58.0858 44.8197 59.013 45.7469 59.013 46.8866V56.9074Z" fill="black"/>
<path d="M57.6104 48.2264C57.2436 47.8595 56.6486 47.8595 56.2818 48.2264L50.9335 53.5747L48.5915 51.2327C48.2246 50.8658 47.6298 50.8658 47.263 51.2327C46.8961 51.5997 46.8961 52.1945 47.263 52.5613L50.2692 55.5675C50.4526 55.7509 50.6931 55.8427 50.9334 55.8427C51.1738 55.8427 51.4142 55.751 51.5976 55.5675L57.6102 49.555C57.9773 49.1881 57.9773 48.5932 57.6104 48.2264Z" fill="black"/>
<path d="M21.8731 5.86359H1.83134C1.31243 5.86359 0.891846 6.28417 0.891846 6.80296C0.891846 7.32175 1.31243 7.74245 1.83134 7.74245H21.8731C22.3919 7.74245 22.8126 7.32187 22.8126 6.80296C22.8126 6.28406 22.3919 5.86359 21.8731 5.86359Z" fill="black"/>
<path d="M36.9044 5.86359H25.8814C25.3626 5.86359 24.9419 6.28417 24.9419 6.80308C24.9419 7.32198 25.3625 7.74257 25.8814 7.74257H36.9044C37.4232 7.74257 37.8439 7.32198 37.8439 6.80308C37.8439 6.28417 37.4232 5.86359 36.9044 5.86359Z" fill="black"/>
<path d="M36.9044 11.8761H32.896C32.3772 11.8761 31.9565 12.2967 31.9565 12.8156C31.9565 13.3345 32.3771 13.7551 32.896 13.7551H36.9044C37.4232 13.7551 37.8439 13.3345 37.8439 12.8156C37.8439 12.2967 37.4232 11.8761 36.9044 11.8761Z" fill="black"/>
<path d="M9.84802 11.8761H1.83134C1.31243 11.8761 0.891846 12.2967 0.891846 12.8155C0.891846 13.3343 1.31243 13.755 1.83134 13.755H9.84802C10.3668 13.755 10.7875 13.3344 10.7875 12.8155C10.7875 12.2966 10.3668 11.8761 9.84802 11.8761Z" fill="black"/>
<path d="M28.8876 11.8761H13.8562C13.3375 11.8761 12.9167 12.2967 12.9167 12.8156C12.9167 13.3345 13.3373 13.7551 13.8562 13.7551H28.8875C29.4063 13.7551 29.827 13.3345 29.827 12.8156C29.827 12.2967 29.4064 11.8761 28.8876 11.8761Z" fill="black"/>
<path d="M21.8731 26.9074H1.83134C1.31255 26.9074 0.891846 27.328 0.891846 27.8469C0.891846 28.3658 1.31243 28.7864 1.83134 28.7864H21.8731C22.3919 28.7864 22.8126 28.3658 22.8126 27.8469C22.8126 27.328 22.3919 26.9074 21.8731 26.9074Z" fill="black"/>
<path d="M36.9044 26.9074H25.8814C25.3626 26.9074 24.9419 27.328 24.9419 27.8469C24.9419 28.3658 25.3625 28.7864 25.8814 28.7864H36.9044C37.4232 28.7864 37.8439 28.3658 37.8439 27.8469C37.8439 27.328 37.4232 26.9074 36.9044 26.9074Z" fill="black"/>
<path d="M36.9044 32.92H32.896C32.3772 32.92 31.9565 33.3405 31.9565 33.8594C31.9565 34.3784 32.3771 34.7989 32.896 34.7989H36.9044C37.4232 34.7989 37.8439 34.3784 37.8439 33.8594C37.8439 33.3405 37.4232 32.92 36.9044 32.92Z" fill="black"/>
<path d="M9.84802 32.92H1.83134C1.31255 32.92 0.891846 33.3405 0.891846 33.8594C0.891846 34.3784 1.31243 34.7989 1.83134 34.7989H9.84802C10.3668 34.7989 10.7875 34.3784 10.7875 33.8594C10.7875 33.3405 10.3668 32.92 9.84802 32.92Z" fill="black"/>
<path d="M28.8876 32.92H13.8562C13.3375 32.92 12.9167 33.3405 12.9167 33.8594C12.9167 34.3784 13.3373 34.7989 13.8562 34.7989H28.8875C29.4063 34.7989 29.827 34.3784 29.827 33.8594C29.827 33.3405 29.4064 32.92 28.8876 32.92Z" fill="black"/>
<path d="M21.8731 47.9512H1.83134C1.31255 47.9512 0.891846 48.3718 0.891846 48.8907C0.891846 49.4095 1.31243 49.8302 1.83134 49.8302H21.8731C22.3919 49.8302 22.8126 49.4096 22.8126 48.8907C22.8125 48.3718 22.3919 47.9512 21.8731 47.9512Z" fill="black"/>
<path d="M36.9044 47.9512H25.8814C25.3626 47.9512 24.9419 48.3718 24.9419 48.8907C24.9419 49.4095 25.3625 49.8302 25.8814 49.8302H36.9044C37.4232 49.8302 37.8439 49.4096 37.8439 48.8907C37.8439 48.3718 37.4232 47.9512 36.9044 47.9512Z" fill="black"/>
<path d="M36.9044 53.9638H32.896C32.3772 53.9638 31.9565 54.3844 31.9565 54.9033C31.9565 55.4221 32.3771 55.8428 32.896 55.8428H36.9044C37.4232 55.8428 37.8439 55.4222 37.8439 54.9033C37.8439 54.3844 37.4232 53.9638 36.9044 53.9638Z" fill="black"/>
<path d="M9.84802 53.9638H1.83134C1.31243 53.9638 0.891846 54.3844 0.891846 54.9033C0.891846 55.4221 1.31243 55.8428 1.83134 55.8428H9.84802C10.3668 55.8428 10.7875 55.4222 10.7875 54.9033C10.7875 54.3844 10.3668 53.9638 9.84802 53.9638Z" fill="black"/>
<path d="M28.8876 53.9638H13.8562C13.3375 53.9638 12.9167 54.3844 12.9167 54.9033C12.9167 55.4221 13.3373 55.8428 13.8562 55.8428H28.8875C29.4063 55.8428 29.827 55.4222 29.827 54.9033C29.827 54.3844 29.4064 53.9638 28.8876 53.9638Z" fill="black"/>
<path d="M55.6063 33.1951L53.2643 30.8531L55.6063 28.5111C55.9732 28.1443 55.9732 27.5494 55.6063 27.1826C55.2394 26.8157 54.6445 26.8157 54.2777 27.1826L51.9357 29.5246L49.5937 27.1826C49.2268 26.8157 48.632 26.8157 48.2652 27.1826C47.8983 27.5495 47.8983 28.1443 48.2652 28.5111L50.6072 30.8531L48.2652 33.1951C47.8983 33.562 47.8983 34.1569 48.2652 34.5237C48.4486 34.7071 48.689 34.7988 48.9294 34.7988C49.1697 34.7988 49.4102 34.7072 49.5936 34.5237L51.9356 32.1817L54.2776 34.5237C54.461 34.7071 54.7015 34.7988 54.9418 34.7988C55.1822 34.7988 55.4226 34.7072 55.606 34.5237C55.9732 34.1567 55.9732 33.5619 55.6063 33.1951Z" fill="black"/>
</g>
<defs>
<clipPath id="clip0_114_2">
<rect width="60" height="60" fill="white" transform="translate(0.891846 0.853119)"/>
</clipPath>
</defs>
</svg>
